Coordinates
version=1
nRows=32
nColumns=22
inDegrees=yes

Units are S.I. units (second, meters, Newtons, ...)
If the header above contains a line with 'inDegrees', this indicates whether rotational values are in degrees (yes) or radians (no).

endheader
time	pelvis_tilt	pelvis_list	pelvis_rotation	pelvis_tx	pelvis_ty	pelvis_tz	hip_flexion_r	hip_adduction_r	hip_rotation_r	knee_angle_r	ankle_angle_r	subtalar_angle_r	hip_flexion_l	hip_adduction_l	hip_rotation_l	knee_angle_l	ankle_angle_l	subtalar_angle_l	lumbar_extension	lumbar_bending	lumbar_rotation
      3.99000000	     -3.68858025	     -0.50399686	    -98.15359629	      0.34949585	      0.89633871	      0.84000655	     -6.51040469	     11.18003381	     12.57398493	    -24.92002444	     13.65035160	     -5.40747987	     24.51661649	     -9.55771476	    -19.84737368	    -11.60790697	      1.38449431	     10.52348903	     -7.96896713	      2.35688599	      5.98011647
      4.00000000	     -3.65905088	     -0.52745092	    -98.58750420	      0.35022692	      0.89578845	      0.84869412	     -6.75052057	     10.96404916	     12.81652054	    -25.65965428	     13.42494492	     -4.99200071	     24.55939940	     -9.34229397	    -19.36252000	    -12.67077889	      1.10758736	      9.33627175	     -7.87207091	      2.21197565	      6.11623496
      4.01000000	     -3.57174255	     -0.53913606	    -99.01926724	      0.35088719	      0.89532247	      0.85752901	     -6.91527575	     10.69224835	     12.99837768	    -26.49240807	     13.10492108	     -4.50506190	     24.58523039	     -9.07267999	    -18.66844923	    -13.75740991	      0.72946708	      8.05470729	     -7.72765123	      1.99284953	      6.22759134
      4.02000000	     -3.43004163	     -0.53974358	    -99.44154706	      0.35148322	      0.89495850	      0.86649840	     -6.99897692	     10.36975742	     13.11466523	    -27.42030502	     12.65477001	     -3.93288029	     24.60800413	     -8.75516102	    -17.82792877	    -14.85306240	      0.26703814	      6.73485031	     -7.53661335	      1.70435752	      6.29686764
      4.03000000	     -3.24929009	     -0.53629274	    -99.85276909	      0.35202844	      0.89472063	      0.87558493	     -7.00252538	     10.00800819	     13.14922326	    -28.44540928	     12.05233004	     -3.25112521	     24.63950314	     -8.41419349	    -16.91620946	    -15.97379827	     -0.22307273	      5.41527104	     -7.31285526	      1.36696168	      6.35620914
      4.04000000	     -3.03874637	     -0.53473202	   -100.24623454	      0.35250471	      0.89463933	      0.88477131	     -6.92470705	      9.61991989	     13.10680899	    -29.57353651	     11.24982865	     -2.46490612	     24.67353354	     -8.06499923	    -16.00041235	    -17.10278103	     -0.72490327	      4.18499830	     -7.06595220	      0.98842946	      6.35741774
      4.05000000	     -2.82014368	     -0.54080730	   -100.62728117	      0.35290133	      0.89473889	      0.89404944	     -6.77547142	      9.22162154	     12.98529521	    -30.79041203	     10.21498613	     -1.54744480	     24.71492120	     -7.74438299	    -15.16647844	    -18.27056146	     -1.15790817	      3.06430658	     -6.80677420	      0.59282314	      6.34923834
      4.06000000	     -2.61005548	     -0.56545978	   -100.99564533	      0.35320755	      0.89504267	      0.90338566	     -6.55433274	      8.82835058	     12.78867262	    -32.11102974	      8.93341423	     -0.49489671	     24.74434491	     -7.47338604	    -14.46841477	    -19.47022367	     -1.48481492	      2.09458155	     -6.55699055	      0.19800727	      6.31417649
      4.07000000	     -2.41912638	     -0.61502583	   -101.35136712	      0.35344176	      0.89557808	      0.91274517	     -6.26301641	      8.44687823	     12.52544912	    -33.53404310	      7.39289011	      0.66804669	     24.73656169	     -7.25807423	    -13.93549976	    -20.67010528	     -1.69375227	      1.31060891	     -6.33038880	     -0.17897090	      6.24017932
      4.08000000	     -2.25599479	     -0.69186299	   -101.68954373	      0.35361077	      0.89635731	      0.92209186	     -5.89889033	      8.08083507	     12.18243375	    -35.05555531	      5.59762522	      1.90902205	     24.66816698	     -7.09629335	    -13.55132473	    -21.83298793	     -1.80588459	      0.70947721	     -6.13543467	     -0.53043032	      6.15507803
      4.09000000	     -2.12559410	     -0.79685338	   -102.01952264	      0.35372460	      0.89737743	      0.93137762	     -5.45380981	      7.72988382	     11.77393443	    -36.68217514	      3.56544149	      3.19767780	     24.51977379	     -6.98921812	    -13.33588058	    -22.93126454	     -1.79976249	      0.25909013	     -5.97992630	     -0.84597197	      6.06164054
      4.10000000	     -2.02335841	     -0.92513447	   -102.34507228	      0.35380311	      0.89862218	      0.94054926	     -4.91334147	      7.38646335	     11.31168058	    -38.41874377	      1.32991557	      4.47921075	     24.27341848	     -6.92011145	    -13.27392702	    -23.91450269	     -1.68300545	     -0.07431989	     -5.86335667	     -1.12613144	      5.95936042
      4.11000000	     -1.94341439	     -1.07098376	   -102.66601458	      0.35387895	      0.90006252	      0.94956022	     -4.26453815	      7.03998475	     10.79840856	    -40.26627952	     -1.06044538	      5.68349411	     23.92086795	     -6.86895479	    -13.34171188	    -24.74701158	     -1.47805031	     -0.32566211	     -5.78370917	     -1.37112373	      5.84717506
      4.12000000	     -1.87684168	     -1.22542695	   -102.98587825	      0.35396719	      0.90165128	      0.95835187	     -3.49621243	      6.68192204	     10.25561797	    -42.21905861	     -3.54107266	      6.76969790	     23.46673867	     -6.81589967	    -13.50726094	    -25.40712169	     -1.18178213	     -0.53515176	     -5.73513504	     -1.58802007	      5.73245183
      4.13000000	     -1.82218163	     -1.38219279	   -103.30236170	      0.35409574	      0.90335249	      0.96688500	     -2.60321821	      6.30671359	      9.68131367	    -44.26706787	     -6.04905631	      7.65856833	     22.91242166	     -6.75150372	    -13.76528986	    -25.86935855	     -0.86257274	     -0.72021736	     -5.71401422	     -1.77074588	      5.59656125
      4.14000000	     -1.77214260	     -1.53265261	   -103.62224798	      0.35426531	      0.90511196	      0.97513750	     -1.58866093	      5.91059803	      9.11000069	    -46.38756101	     -8.51151679	      8.36980890	     22.27115832	     -6.66237668	    -14.07910666	    -26.13482578	     -0.48343495	     -0.90805806	     -5.71207096	     -1.92630819	      5.45452455
      4.15000000	     -1.72710176	     -1.67883387	   -103.94146644	      0.35448168	      0.90689656	      0.98308994	     -0.47527189	      5.49626063	      8.55655744	    -48.54234629	    -10.85053066	      8.89445164	     21.55274882	     -6.54483564	    -14.43249932	    -26.21507759	     -0.08385218	     -1.09329701	     -5.73306180	     -2.05460801	      5.30024914
      4.16000000	     -1.69548426	     -1.82168037	   -104.26365034	      0.35474555	      0.90868580	      0.99075034	      0.70882993	      5.07503803	      8.04256066	    -50.68907995	    -12.99308474	      9.28472776	     20.76354436	     -6.40448041	    -14.79408937	    -26.12295713	      0.32816452	     -1.26553385	     -5.77938598	     -2.14539224	      5.14806226
      4.17000000	     -1.66320637	     -1.94941525	   -104.57690665	      0.35503027	      0.91042183	      0.99812517	      1.95303334	      4.64902403	      7.58521803	    -52.79063569	    -14.82653864	      9.62548783	     19.94662043	     -6.23926222	    -15.17549801	    -25.90490038	      0.73763628	     -1.46221548	     -5.83158643	     -2.22034617	      4.96248039
      4.18000000	     -1.63915866	     -2.07229494	   -104.87757922	      0.35533587	      0.91210479	      1.00525285	      3.21272894	      4.23015311	      7.19176709	    -54.79755216	    -16.28186848	      9.95423256	     19.10639041	     -6.05801655	    -15.55380364	    -25.59442832	      1.14999751	     -1.66823703	     -5.89813119	     -2.27069683	      4.74358678
      4.19000000	     -1.63569883	     -2.19870340	   -105.16424056	      0.35565409	      0.91375003	      1.01216723	      4.44570429	      3.83376564	      6.86611630	    -56.66183951	    -17.30744508	     10.31570572	     18.24652491	     -5.87437032	    -15.89985705	    -25.22158116	      1.54199065	     -1.85491902	     -5.98851690	     -2.28525543	      4.49890691
      4.20000000	     -1.65228726	     -2.32696716	   -105.41782442	      0.35595467	      0.91536051	      1.01892294	      5.62369306	      3.46649514	      6.59141342	    -58.34171335	    -17.84141059	     10.77421662	     17.38333693	     -5.69610478	    -16.22242983	    -24.81605271	      1.92375145	     -2.03919782	     -6.08889281	     -2.27567004	      4.20797344
      4.21000000	     -1.70942201	     -2.46804628	   -105.63573484	      0.35625453	      0.91695533	      1.02552396	      6.71346784	      3.14595592	      6.36013603	    -59.81125887	    -17.90474271	     11.29596683	     16.52365948	     -5.54347285	    -16.47392198	    -24.42173437	      2.27666957	     -2.17332188	     -6.22142146	     -2.21858556	      3.88705970
      4.22000000	     -1.80620420	     -2.60554912	   -105.80464039	      0.35654262	      0.91853371	      1.03204719	      7.70862196	      2.86608816	      6.13433448	    -61.03927311	    -17.49244226	     11.80449459	     15.67591921	     -5.41875655	    -16.64472124	    -24.02630301	      2.62154071	     -2.25673411	     -6.35263497	     -2.11340332	      3.54057252
      4.23000000	     -1.94182151	     -2.76465066	   -105.92038094	      0.35680170	      0.92011044	      1.03843305	      8.58485157	      2.63285774	      5.93639116	    -62.02831828	    -16.71823139	     12.43572141	     14.86070585	     -5.33898494	    -16.78441063	    -23.72018872	      2.91464958	     -2.33815865	     -6.52224647	     -1.97384467	      3.10788125
      4.24000000	     -2.11855389	     -2.92066613	   -105.98066257	      0.35706379	      0.92167038	      1.04475471	      9.35975649	      2.42140936	      5.69943258	    -62.76810014	    -15.62287969	     12.98913340	     14.07535944	     -5.29817426	    -16.84766634	    -23.45550558	      3.22921400	     -2.37690014	     -6.69166292	     -1.78691491	      2.67567639
      4.25000000	     -2.32690070	     -3.06873626	   -105.99389290	      0.35728906	      0.92320730	      1.05097361	     10.04058976	      2.23919565	      5.46104893	    -63.26215721	    -14.27084810	     13.42035874	     13.32818180	     -5.29461862	    -16.83700766	    -23.23169412	      3.51293751	     -2.39054089	     -6.85444275	     -1.56573721	      2.21067024
      4.26000000	     -2.56316436	     -3.20421543	   -105.96188833	      0.35749087	      0.92470605	      1.05708983	     10.63758852	      2.07802095	      5.21554058	    -63.52092747	    -12.74790827	     13.72321050	     12.62327991	     -5.32563177	    -16.76211844	    -23.04699369	      3.77450450	     -2.39043397	     -7.00471106	     -1.31208999	      1.73299945
      4.27000000	     -2.82042676	     -3.29917693	   -105.91994961	      0.35760324	      0.92608482	      1.06304848	     11.20174679	      1.94246202	      4.98820766	    -63.57526792	    -11.15252065	     13.84650207	     12.00338043	     -5.41892816	    -16.71830483	    -22.94118324	      4.07609555	     -2.38112750	     -7.11318294	     -1.03095219	      1.26700526
      4.28000000	     -3.08255873	     -3.46180103	   -105.82138803	      0.35776953	      0.92755831	      1.06892905	     11.59678528	      1.75202491	      4.73053483	    -63.38741578	     -9.53844995	     14.11020523	     11.30453574	     -5.47312302	    -16.56280125	    -22.77676986	      4.30205239	     -2.35830581	     -7.29920946	     -0.76069499	      0.79051332
      4.29000000	     -3.35288330	     -3.57056471	   -105.74344783	      0.35781585	      0.92887306	      1.07462433	     11.98825137	      1.58100281	      4.51959097	    -63.02138399	     -7.95762400	     14.19858905	     10.69062476	     -5.58107598	    -16.46234687	    -22.66542260	      4.55437969	     -2.33217736	     -7.42433028	     -0.47598956	      0.37045575
      4.30000000	     -3.60898392	     -3.63502344	   -105.67837403	      0.35779134	      0.93003906	      1.08014010	     12.37205309	      1.38880677	      4.34031456	    -62.48200010	     -6.44336161	     14.20876934	     10.14702551	     -5.70366398	    -16.39000202	    -22.57718668	      4.79747080	     -2.31300000	     -7.50033372	     -0.19869202	      0.02240079
